<svg width="206" height="58" viewBox="0 0 206 58" fill="none" xmlns="http://www.w3.org/2000/svg">
<path d="M48.9173 3.74037e-05C46.684 -0.00387328 44.472 0.434009 42.4086 1.28847C40.3452 2.14294 38.4713 3.39711 36.8946 4.97878L16.8528 25.0166L12.8452 21.009C12.3033 20.4863 11.871 19.8608 11.5736 19.1691C11.2761 18.4774 11.1194 17.7333 11.1126 16.9804C11.1059 16.2275 11.2492 15.4808 11.5342 14.7839C11.8192 14.0869 12.2403 13.4538 12.7727 12.9214C13.3051 12.389 13.9382 11.9679 14.6352 11.6829C15.3321 11.3979 16.0788 11.2546 16.8317 11.2613C17.5846 11.2681 18.3287 11.4248 19.0204 11.7223C19.7121 12.0197 20.3376 12.452 20.8604 12.9939L28.8794 4.97878C25.6773 1.85535 21.3734 0.119409 16.9003 0.147062C12.4272 0.174715 8.14505 1.96374 4.98175 5.12651C1.81846 8.28929 0.0287334 12.5711 0.000342964 17.0442C-0.0280475 21.5173 1.70718 25.8215 4.83008 29.0242L16.8528 41.0469L56.2467 1.65301C53.9583 0.559625 51.4534 -0.00529515 48.9173 3.74037e-05Z" fill="#F3F3F3"/>
<path d="M64.261 9.67212L48.9165 25.0206L44.9089 21.0091L36.8938 29.0242L40.9014 33.0318L24.8711 49.062L32.8862 57.0811L60.9392 29.0282C63.4256 26.5408 65.0801 23.3441 65.6749 19.8778C66.2698 16.4116 65.7758 12.8461 64.261 9.67212Z" fill="#F3F3F3"/>
<path d="M77.9199 18.6698H83.5517V25.7H91.3807V18.6698H97.0167V37.8868H91.3807V30.37H83.5517V37.8868H77.9199V18.6698Z" fill="#F3F3F3"/>
<path d="M114.612 36.9096C114.298 37.0726 113.975 37.2209 113.644 37.3538C113.195 37.5391 112.731 37.6941 112.257 37.8173C111.672 37.9754 111.078 38.1043 110.478 38.2036C109.783 38.3113 109.079 38.3643 108.374 38.362C105.618 38.362 103.508 37.7323 102.043 36.4731C100.578 35.2139 99.8457 33.4512 99.8457 31.185C99.8482 30.2793 100.009 29.3797 100.324 28.5198C100.635 27.6687 101.128 26.8813 101.774 26.2021C102.453 25.5 103.287 24.9353 104.223 24.545C105.308 24.1047 106.487 23.8883 107.675 23.9115C108.659 23.9057 109.636 24.0668 110.555 24.3867C111.45 24.6991 112.255 25.1918 112.91 25.8274C113.615 26.5274 114.152 27.352 114.488 28.2494C114.891 29.35 115.085 30.5047 115.06 31.664V32.5756H104.94C104.966 32.8246 105.035 33.0683 105.145 33.2979C105.284 33.5728 105.491 33.8148 105.751 34.0048C106.09 34.25 106.48 34.4313 106.898 34.5379C107.473 34.6843 108.068 34.752 108.665 34.7387C109.509 34.7479 110.351 34.6411 111.16 34.422C111.776 34.2638 112.369 34.0408 112.927 33.7576L114.612 36.9096ZM110.286 29.6747C110.283 29.4285 110.229 29.1849 110.128 28.9563C110.015 28.6985 109.847 28.4635 109.633 28.2648C109.396 28.0427 109.115 27.862 108.805 27.7318C108.43 27.5793 108.022 27.5053 107.611 27.5155C107.205 27.5089 106.804 27.5827 106.433 27.7318C106.121 27.8581 105.84 28.0393 105.605 28.2648C105.401 28.4662 105.24 28.7008 105.132 28.9563C105.03 29.1847 104.975 29.4282 104.97 29.6747H110.286Z" fill="#F3F3F3"/>
<path d="M116.681 31.2043L125.244 19.7359H130.56V30.8296H132.565V34.7194H130.56V37.8868H125.624V34.7194H116.664L116.681 31.2043ZM125.641 30.8181V25.4102L121.571 30.8181H125.641Z" fill="#F3F3F3"/>
<path d="M135.395 24.348H140.583L140.775 26.0476C141.2 25.5051 141.734 25.04 142.349 24.6764C143.03 24.2887 143.823 24.0937 144.627 24.1163C144.994 24.1131 145.36 24.1325 145.724 24.1742C146 24.2063 146.272 24.2645 146.534 24.348L145.835 28.4966C145.325 28.3806 144.802 28.3222 144.277 28.3228C141.939 28.3228 140.772 29.4816 140.775 31.7992V37.8753H135.395V24.348Z" fill="#F3F3F3"/>
<path d="M149.686 28.091H147.488V24.348H149.686V20.5703H155.061V24.348H158.756V28.091H155.061V32.8769C155.061 33.9893 155.644 34.5456 156.811 34.5456C157.157 34.5451 157.499 34.4765 157.813 34.3447C158.13 34.2149 158.434 34.0611 158.722 33.8851L160.821 36.8787C160.142 37.3624 159.379 37.7421 158.564 38.0027C157.744 38.2727 156.877 38.4099 156.004 38.4083C154.968 38.4358 153.936 38.2783 152.966 37.9448C152.203 37.676 151.529 37.2344 151.008 36.6623C150.502 36.0838 150.148 35.4089 149.971 34.6885C149.765 33.8662 149.665 33.0249 149.673 32.1816L149.686 28.091Z" fill="#F3F3F3"/>
<path d="M172.287 36.7551C172.215 36.8324 172.099 36.9521 171.937 37.1105C171.745 37.2929 171.527 37.4514 171.289 37.5817C170.991 37.7414 170.675 37.8709 170.346 37.968C169.933 38.0921 169.5 38.1509 169.066 38.1418C168.466 38.1469 167.873 38.0349 167.325 37.8135C166.792 37.6003 166.315 37.2869 165.926 36.8942C165.513 36.4717 165.199 35.9776 165.004 35.4418C164.776 34.8273 164.665 34.1819 164.676 33.5336C164.654 32.7822 164.82 32.0361 165.162 31.3511C165.457 30.779 165.879 30.2686 166.404 29.8524C166.881 29.4734 167.436 29.1833 168.038 28.9988C168.573 28.8277 169.134 28.7364 169.702 28.7284C170.265 28.7065 170.827 28.7853 171.357 28.9601C171.754 29.1146 172.057 29.2305 172.27 29.3078V25.0588H174.177V36.9598C174.177 37.2495 174.177 37.5547 174.198 37.8714H172.334L172.287 36.7551ZM172.287 30.934C172.039 30.776 171.776 30.6377 171.502 30.5207C170.985 30.3263 170.427 30.2379 169.868 30.2619C169.428 30.2578 168.992 30.3367 168.588 30.4936C168.202 30.6455 167.855 30.8677 167.568 31.1464C167.266 31.4458 167.035 31.7981 166.89 32.1816C166.722 32.6278 166.64 33.0969 166.647 33.5684C166.644 33.9727 166.701 34.3755 166.817 34.7658C166.917 35.1233 167.094 35.4593 167.338 35.7547C167.57 36.039 167.877 36.2672 168.23 36.419C168.631 36.5862 169.068 36.6682 169.51 36.6585C169.952 36.6707 170.391 36.5859 170.79 36.4113C171.12 36.2595 171.41 36.0462 171.643 35.7856C171.861 35.5397 172.028 35.2595 172.134 34.9589C172.231 34.6894 172.285 34.4082 172.291 34.1246L172.287 30.934Z" fill="#F3F3F3"/>
<path d="M185.862 36.5812C185.703 36.7384 185.533 36.8868 185.354 37.0254C185.085 37.229 184.79 37.4027 184.475 37.543C184.065 37.7249 183.637 37.8699 183.195 37.9757C182.652 38.1025 182.092 38.1635 181.531 38.1572C180.814 38.1643 180.102 38.0476 179.432 37.8134C178.817 37.595 178.26 37.2606 177.798 36.8323C177.336 36.3973 176.979 35.8805 176.749 35.3143C176.494 34.6875 176.368 34.0237 176.377 33.3559C176.372 32.7296 176.494 32.1077 176.736 31.5211C176.962 30.9706 177.309 30.4673 177.756 30.0416C178.198 29.6224 178.727 29.2864 179.313 29.0528C179.938 28.8044 180.614 28.6793 181.297 28.6858C182.054 28.6678 182.805 28.8204 183.481 29.13C184.072 29.4066 184.585 29.8032 184.979 30.2888C185.373 30.7947 185.662 31.3615 185.832 31.9614C186.017 32.6007 186.108 33.259 186.105 33.9198H178.31C178.32 34.2983 178.417 34.6707 178.596 35.013C178.768 35.341 179.01 35.6351 179.309 35.8782C179.607 36.1243 179.953 36.3193 180.328 36.4538C180.711 36.5963 181.122 36.6686 181.536 36.6662C182.246 36.6894 182.951 36.5568 183.592 36.2799C184.025 36.0906 184.42 35.8373 184.761 35.5306L185.862 36.5812ZM184.155 32.6451C184.1 31.9851 183.799 31.3616 183.302 30.876C183.042 30.6268 182.724 30.4324 182.372 30.3062C182.019 30.1801 181.641 30.1254 181.263 30.1459C180.844 30.1414 180.429 30.2137 180.042 30.3584C179.7 30.4914 179.388 30.6799 179.121 30.9146C178.868 31.1437 178.666 31.4153 178.528 31.7142C178.387 32.0088 178.308 32.3244 178.293 32.6451H184.155Z" fill="#F3F3F3"/>
<path d="M186.609 28.9562H188.794L191.87 35.9284L194.925 28.9562H196.981L192.762 37.8868H190.85L186.609 28.9562Z" fill="#F3F3F3"/>
<path d="M198.764 35.6426C199.131 35.9722 199.566 36.2345 200.044 36.4151C200.586 36.6121 201.166 36.7092 201.75 36.701C202.3 36.7241 202.848 36.6343 203.354 36.4383C203.546 36.3694 203.71 36.2487 203.824 36.0925C203.938 35.9364 203.996 35.7523 203.99 35.5653C203.997 35.3811 203.95 35.1985 203.854 35.0361C203.739 34.8726 203.578 34.7393 203.389 34.6499C203.118 34.5157 202.832 34.4095 202.535 34.3331C202.173 34.2365 201.725 34.1323 201.187 34.0164C200.801 33.9394 200.421 33.8361 200.052 33.7073C199.69 33.5863 199.35 33.4156 199.045 33.2013C198.749 32.991 198.504 32.7281 198.324 32.4288C198.131 32.0942 198.036 31.7206 198.047 31.3434C198.034 30.9368 198.148 30.5352 198.375 30.1845C198.597 29.8535 198.897 29.5712 199.254 29.3579C199.636 29.1296 200.055 28.9575 200.496 28.848C200.963 28.7314 201.445 28.673 201.929 28.6742C202.654 28.6615 203.376 28.7634 204.063 28.9755C204.642 29.1612 205.178 29.4443 205.641 29.8099L204.604 30.9996C204.275 30.7389 203.898 30.5312 203.491 30.3854C202.993 30.2104 202.463 30.1251 201.929 30.1343C201.425 30.1152 200.922 30.208 200.466 30.4047C200.289 30.4877 200.143 30.6156 200.045 30.7727C199.947 30.9298 199.902 31.1094 199.916 31.2893C199.921 31.4834 199.995 31.6708 200.126 31.8244C200.257 31.9779 200.439 32.0895 200.645 32.1429C201.268 32.3661 201.91 32.5431 202.565 32.6721C203.008 32.766 203.444 32.8847 203.871 33.0275C204.252 33.1505 204.61 33.325 204.933 33.5451C205.232 33.7531 205.477 34.0165 205.654 34.3177C205.839 34.6653 205.93 35.0481 205.919 35.434C205.927 35.849 205.809 36.2581 205.577 36.616C205.348 36.9579 205.037 37.2495 204.668 37.4696C204.266 37.7067 203.821 37.8804 203.354 37.9834C202.848 38.1005 202.328 38.1589 201.806 38.1572C199.941 38.1572 198.538 37.7014 197.607 36.7937L198.764 35.6426Z" fill="#F3F3F3"/>
</svg>
