<svg width="1271" height="301" viewBox="0 0 1271 301" fill="none" xmlns="http://www.w3.org/2000/svg">
<path d="M355.25 32.833H395.314V88.0675H451.013V32.833H491.076V183.83H451.013V124.736H395.314V183.83H355.25V32.833Z" fill="#F485A2"/>
<path d="M616.276 176.135C614.444 177.185 612.148 178.358 609.363 179.628C606.192 181.061 602.927 182.277 599.591 183.268C595.423 184.481 591.19 185.459 586.912 186.2C581.975 187.051 576.972 187.468 571.961 187.446C552.418 187.446 537.402 182.503 526.914 172.617C516.426 162.731 511.222 148.888 511.304 131.087C511.304 123.964 512.45 116.887 514.699 110.127C516.879 103.398 520.375 97.1701 524.984 91.8052C529.812 86.2806 535.757 81.8427 542.426 78.7845C550.145 75.3494 558.533 73.6803 566.978 73.8986C573.983 73.8559 580.935 75.1235 587.474 77.6363C593.843 80.0918 599.573 83.9589 604.232 88.947C609.237 94.4533 613.054 100.931 615.445 107.977C618.319 116.638 619.69 125.726 619.501 134.85V142.178H547.435C547.623 144.135 548.126 146.049 548.925 147.846C549.893 150.012 551.367 151.914 553.224 153.391C555.629 155.32 558.395 156.748 561.359 157.593C565.452 158.74 569.691 159.275 573.94 159.181C579.949 159.264 585.937 158.441 591.7 156.738C596.077 155.497 600.292 153.742 604.257 151.51L616.276 176.135ZM585.471 119.313C585.45 117.37 585.069 115.448 584.347 113.645C583.553 111.624 582.365 109.781 580.854 108.222C579.162 106.475 577.167 105.052 574.966 104.02C572.304 102.826 569.406 102.25 566.489 102.334C563.606 102.271 560.745 102.847 558.11 104.02C555.887 105.014 553.886 106.443 552.223 108.222C550.762 109.802 549.611 111.641 548.827 113.645C548.105 115.448 547.724 117.37 547.703 119.313H585.471Z" fill="#F485A2"/>
<path d="M630.982 131.307L691.885 41.1877H729.677V128.351H743.943V158.937H729.677V183.83H694.596V158.937H631.08L630.982 131.307ZM694.498 128.351V85.7955L665.623 128.351H694.498Z" fill="#F485A2"/>
<path d="M764.071 77.4164H800.984L802.327 90.7792C805.371 86.5357 809.172 82.8915 813.54 80.0303C818.388 77.0098 824.03 75.5121 829.737 75.7308C832.351 75.7006 834.963 75.8557 837.554 76.195C839.525 76.4455 841.465 76.8957 843.344 77.5385L838.458 110.152C834.831 109.245 831.106 108.785 827.367 108.784C810.756 108.784 802.45 117.912 802.45 136.169V183.952H764.071V77.4164Z" fill="#F485A2"/>
<path d="M865.747 106.854H850.137V77.5385H865.747V47.7593H904.003V77.4164H930.191V106.731H904.003V144.304C904.003 153.066 908.156 157.446 916.462 157.446C918.926 157.431 921.358 156.89 923.595 155.859C925.847 154.845 928.005 153.636 930.045 152.243L944.971 175.768C940.132 179.561 934.712 182.547 928.921 184.612C923.106 186.705 916.974 187.779 910.794 187.788C903.419 187.999 896.074 186.762 889.175 184.148C883.752 182.032 878.959 178.568 875.25 174.083C871.674 169.527 869.169 164.225 867.921 158.57C866.437 152.114 865.716 145.505 865.771 138.88L865.747 106.854Z" fill="#F485A2"/>
<path d="M209.529 0.000207921C199.972 -0.0227028 190.504 1.848 181.674 5.50428C172.844 9.16057 164.825 14.53 158.081 21.3025L72.188 107.073L55.0875 89.973C52.5437 87.7998 50.4769 85.1238 49.0171 82.1134C47.5573 79.1029 46.736 75.823 46.6049 72.4798C46.4738 69.1366 47.0357 65.8025 48.2552 62.6869C49.4747 59.5713 51.3255 56.7417 53.6913 54.3759C56.0571 52.0101 58.8868 50.1593 62.0023 48.9398C65.1179 47.7202 68.4521 47.1584 71.7952 47.2895C75.1384 47.4206 78.4183 48.2419 81.4288 49.7017C84.4393 51.1615 87.1152 53.2283 89.2884 55.7721L123.489 21.5712C109.778 8.2481 91.374 0.855746 72.2561 0.991974C53.1382 1.1282 34.8417 8.78207 21.3213 22.2992C7.80095 35.8164 0.142741 54.1111 0.00197525 73.229C-0.138791 92.3469 7.24919 110.752 20.569 124.467L72.017 175.939L240.579 7.37783C230.905 2.64387 220.298 0.123663 209.529 0.000207921Z" fill="#F485A2"/>
<path d="M275.097 41.5298L209.529 107.073L192.428 89.9729L158.227 124.174L175.328 141.274L106.511 210.091L140.712 244.292L260.83 124.223C271.453 113.598 278.528 99.9455 281.082 85.1396C283.637 70.3336 281.546 55.1 275.097 41.5298Z" fill="#F485A2"/>
<path d="M750.432 246.44L784.512 228.2L789.504 237.992L765.696 250.376L789.888 262.76L784.512 272.84L750.432 254.6V246.44ZM821.849 215.24H835.481L810.233 282.536H796.313L821.849 215.24ZM864.466 276.488C863.058 278.152 861.234 279.56 858.994 280.712C856.818 281.8 854.322 282.344 851.506 282.344C848.754 282.344 846.162 281.8 843.73 280.712C841.362 279.624 839.282 278.088 837.49 276.104C835.762 274.056 834.386 271.624 833.362 268.808C832.338 265.928 831.826 262.696 831.826 259.112C831.826 255.08 832.53 251.56 833.938 248.552C835.41 245.48 837.266 242.952 839.506 240.968C841.81 238.984 844.338 237.512 847.09 236.552C849.906 235.528 852.658 235.016 855.346 235.016C857.522 235.016 859.218 235.176 860.434 235.496C861.65 235.752 862.898 236.104 864.178 236.552V216.968H877.906V281H865.042L864.466 276.488ZM864.178 248.36C863.218 247.784 862.162 247.368 861.01 247.112C859.922 246.856 858.546 246.728 856.882 246.728C853.362 246.728 850.61 247.912 848.626 250.28C846.706 252.648 845.746 255.688 845.746 259.4C845.746 262.664 846.546 265.352 848.146 267.464C849.746 269.512 852.146 270.536 855.346 270.536C856.882 270.536 858.194 270.28 859.282 269.768C860.434 269.192 861.362 268.456 862.066 267.56C862.834 266.664 863.378 265.608 863.698 264.392C864.018 263.176 864.178 261.928 864.178 260.648V248.36ZM928.731 276.104C928.219 276.424 927.451 276.968 926.427 277.736C925.403 278.44 924.059 279.144 922.395 279.848C920.795 280.552 918.875 281.16 916.635 281.672C914.395 282.248 911.835 282.536 908.955 282.536C905.115 282.536 901.659 281.96 898.587 280.808C895.515 279.592 892.891 277.928 890.715 275.816C888.603 273.704 886.971 271.176 885.819 268.232C884.731 265.224 884.187 261.928 884.187 258.344C884.187 255.208 884.699 252.2 885.723 249.32C886.811 246.376 888.347 243.816 890.331 241.64C892.315 239.464 894.747 237.736 897.627 236.456C900.507 235.112 903.771 234.44 907.419 234.44C911.067 234.44 914.267 235.08 917.019 236.36C919.771 237.64 922.075 239.432 923.931 241.736C925.851 243.976 927.291 246.696 928.251 249.896C929.211 253.032 929.691 256.488 929.691 260.264V262.568H897.627C897.691 265 898.747 267.144 900.795 269C902.907 270.792 905.787 271.688 909.435 271.688C913.019 271.688 915.931 271.176 918.171 270.152C920.411 269.064 922.043 268.136 923.067 267.368L928.731 276.104ZM916.635 253.736C916.635 252.776 916.443 251.816 916.059 250.856C915.675 249.832 915.099 248.904 914.331 248.072C913.563 247.24 912.603 246.568 911.451 246.056C910.299 245.48 908.923 245.192 907.323 245.192C905.723 245.192 904.315 245.48 903.099 246.056C901.883 246.568 900.859 247.24 900.027 248.072C899.259 248.904 898.651 249.832 898.203 250.856C897.819 251.816 897.627 252.776 897.627 253.736H916.635ZM935.658 216.968H949.482V281H935.658V216.968ZM983.85 276.776C982.314 278.568 980.362 279.944 977.994 280.904C975.69 281.864 973.098 282.344 970.218 282.344C968.618 282.344 966.922 282.12 965.13 281.672C963.402 281.224 961.77 280.488 960.234 279.464C958.762 278.376 957.514 276.936 956.49 275.144C955.53 273.352 955.05 271.112 955.05 268.424C955.05 265.8 955.562 263.464 956.586 261.416C957.674 259.368 959.146 257.672 961.002 256.328C962.858 254.92 965.034 253.864 967.53 253.16C970.09 252.456 972.842 252.104 975.786 252.104C977.386 252.104 978.986 252.136 980.586 252.2C982.25 252.264 983.338 252.36 983.85 252.488V251.528C983.85 250.376 983.594 249.416 983.082 248.648C982.634 247.816 981.994 247.144 981.162 246.632C980.394 246.056 979.498 245.672 978.474 245.48C977.45 245.224 976.362 245.096 975.21 245.096C972.138 245.096 969.578 245.48 967.53 246.248C965.546 247.016 963.85 247.88 962.442 248.84L956.778 240.392C957.738 239.688 958.826 238.984 960.042 238.28C961.258 237.576 962.698 236.936 964.362 236.36C966.026 235.784 967.882 235.336 969.93 235.016C972.042 234.632 974.442 234.44 977.13 234.44C983.978 234.44 989.034 236.296 992.298 240.008C995.562 243.656 997.194 248.584 997.194 254.792V281H984.234L983.85 276.776ZM983.85 261.128C983.53 261.064 982.922 261 982.026 260.936C981.13 260.808 980.106 260.744 978.954 260.744C975.114 260.744 972.394 261.288 970.794 262.376C969.194 263.464 968.394 265 968.394 266.984C968.394 270.696 970.634 272.552 975.114 272.552C976.202 272.552 977.258 272.392 978.282 272.072C979.37 271.688 980.298 271.176 981.066 270.536C981.898 269.896 982.57 269.096 983.082 268.136C983.594 267.176 983.85 266.056 983.85 264.776V261.128ZM1009.83 267.08C1011.3 268.424 1013.22 269.544 1015.59 270.44C1018.02 271.336 1020.36 271.784 1022.6 271.784C1024.65 271.784 1026.34 271.528 1027.69 271.016C1029.03 270.504 1029.7 269.512 1029.7 268.04C1029.7 267.464 1029.54 266.952 1029.22 266.504C1028.97 265.992 1028.46 265.544 1027.69 265.16C1026.92 264.712 1025.83 264.264 1024.42 263.816C1023.08 263.368 1021.35 262.856 1019.24 262.28C1017.51 261.832 1015.78 261.256 1014.06 260.552C1012.39 259.784 1010.89 258.856 1009.54 257.768C1008.26 256.68 1007.21 255.368 1006.38 253.832C1005.61 252.296 1005.22 250.504 1005.22 248.456C1005.22 246.344 1005.7 244.456 1006.66 242.792C1007.62 241.064 1008.94 239.592 1010.6 238.376C1012.33 237.096 1014.34 236.136 1016.65 235.496C1019.02 234.792 1021.54 234.44 1024.23 234.44C1028.07 234.44 1031.43 234.888 1034.31 235.784C1037.19 236.616 1039.85 237.864 1042.28 239.528L1036.42 248.648C1034.95 247.688 1033.26 246.824 1031.34 246.056C1029.48 245.288 1027.37 244.904 1025 244.904C1022.89 244.904 1021.35 245.224 1020.39 245.864C1019.43 246.44 1018.95 247.24 1018.95 248.264C1018.95 249.736 1019.94 250.824 1021.93 251.528C1023.91 252.232 1026.6 253.032 1029.99 253.928C1034.6 255.208 1037.93 256.968 1039.98 259.208C1042.09 261.448 1043.14 264.424 1043.14 268.136C1043.14 270.632 1042.57 272.776 1041.42 274.568C1040.33 276.36 1038.82 277.864 1036.9 279.08C1035.05 280.232 1032.9 281.096 1030.47 281.672C1028.1 282.248 1025.67 282.536 1023.18 282.536C1019.14 282.536 1015.34 281.992 1011.75 280.904C1008.17 279.816 1005.26 278.152 1003.02 275.912L1009.83 267.08ZM1051.73 262.76L1075.92 250.376L1052.11 237.992L1057.1 228.2L1091.18 246.44V254.6L1057.1 272.84L1051.73 262.76Z" fill="white"/>
<path d="M750.432 246.44L749.96 245.558L749.432 245.841V246.44H750.432ZM784.512 228.2L785.403 227.746L784.94 226.837L784.04 227.318L784.512 228.2ZM789.504 237.992L789.965 238.879L790.845 238.421L790.395 237.538L789.504 237.992ZM765.696 250.376L765.235 249.489L763.515 250.383L765.24 251.266L765.696 250.376ZM789.888 262.76L790.77 263.231L791.249 262.333L790.344 261.87L789.888 262.76ZM784.512 272.84L784.04 273.722L784.923 274.194L785.394 273.311L784.512 272.84ZM750.432 254.6H749.432V255.199L749.96 255.482L750.432 254.6ZM750.904 247.322L784.984 229.082L784.04 227.318L749.96 245.558L750.904 247.322ZM783.621 228.654L788.613 238.446L790.395 237.538L785.403 227.746L783.621 228.654ZM789.043 237.105L765.235 249.489L766.157 251.263L789.965 238.879L789.043 237.105ZM765.24 251.266L789.432 263.65L790.344 261.87L766.152 249.486L765.24 251.266ZM789.006 262.289L783.63 272.369L785.394 273.311L790.77 263.231L789.006 262.289ZM784.984 271.958L750.904 253.718L749.96 255.482L784.04 273.722L784.984 271.958ZM751.432 254.6V246.44H749.432V254.6H751.432ZM821.849 215.24V214.24H821.158L820.914 214.885L821.849 215.24ZM835.481 215.24L836.417 215.591L836.924 214.24H835.481V215.24ZM810.233 282.536V283.536H810.925L811.169 282.887L810.233 282.536ZM796.313 282.536L795.378 282.181L794.863 283.536H796.313V282.536ZM821.849 216.24H835.481V214.24H821.849V216.24ZM834.544 214.889L809.296 282.185L811.169 282.887L836.417 215.591L834.544 214.889ZM810.233 281.536H796.313V283.536H810.233V281.536ZM797.247 282.891L822.783 215.595L820.914 214.885L795.378 282.181L797.247 282.891ZM864.466 276.488L865.458 276.361L865.17 274.108L863.702 275.842L864.466 276.488ZM858.994 280.712L859.441 281.606L859.451 281.601L858.994 280.712ZM843.73 280.712L843.312 281.621L843.321 281.625L843.73 280.712ZM837.49 276.104L836.725 276.749L836.736 276.762L836.748 276.774L837.49 276.104ZM833.362 268.808L832.42 269.143L832.422 269.15L833.362 268.808ZM833.938 248.552L833.036 248.12L833.032 248.128L833.938 248.552ZM839.506 240.968L838.853 240.21L838.843 240.219L839.506 240.968ZM847.09 236.552L847.419 237.496L847.431 237.492L847.09 236.552ZM860.434 235.496L860.179 236.463L860.203 236.469L860.228 236.475L860.434 235.496ZM864.178 236.552L863.847 237.496L865.178 237.961V236.552H864.178ZM864.178 216.968V215.968H863.178V216.968H864.178ZM877.906 216.968H878.906V215.968H877.906V216.968ZM877.906 281V282H878.906V281H877.906ZM865.042 281L864.05 281.127L864.161 282H865.042V281ZM864.178 248.36H865.178V247.794L864.692 247.503L864.178 248.36ZM861.01 247.112L860.781 248.085L860.793 248.088L861.01 247.112ZM848.626 250.28L847.859 249.638L847.854 249.644L847.849 249.65L848.626 250.28ZM848.146 267.464L847.349 268.068L847.353 268.074L847.358 268.08L848.146 267.464ZM859.282 269.768L859.708 270.673L859.718 270.668L859.729 270.662L859.282 269.768ZM862.066 267.56L861.306 266.909L861.293 266.925L861.279 266.942L862.066 267.56ZM863.702 275.842C862.392 277.391 860.677 278.722 858.536 279.823L859.451 281.601C861.79 280.398 863.724 278.913 865.229 277.134L863.702 275.842ZM858.547 279.818C856.53 280.826 854.191 281.344 851.506 281.344V283.344C854.453 283.344 857.106 282.774 859.441 281.606L858.547 279.818ZM851.506 281.344C848.89 281.344 846.437 280.828 844.138 279.799L843.321 281.625C845.886 282.772 848.618 283.344 851.506 283.344V281.344ZM844.147 279.803C841.906 278.773 839.935 277.32 838.232 275.434L836.748 276.774C838.628 278.856 840.818 280.475 843.312 281.621L844.147 279.803ZM838.254 275.459C836.61 273.511 835.29 271.185 834.302 268.466L832.422 269.15C833.481 272.063 834.913 274.601 836.725 276.749L838.254 275.459ZM834.304 268.473C833.324 265.717 832.826 262.601 832.826 259.112H830.826C830.826 262.791 831.351 266.139 832.42 269.143L834.304 268.473ZM832.826 259.112C832.826 255.196 833.509 251.826 834.843 248.976L833.032 248.128C831.55 251.294 830.826 254.964 830.826 259.112H832.826ZM834.84 248.984C836.262 246.016 838.042 243.601 840.169 241.717L838.843 240.219C836.49 242.303 834.558 244.944 833.036 248.12L834.84 248.984ZM840.158 241.726C842.371 239.82 844.791 238.413 847.419 237.496L846.76 235.608C843.885 236.611 841.248 238.148 838.853 240.21L840.158 241.726ZM847.431 237.492C850.15 236.503 852.787 236.016 855.346 236.016V234.016C852.529 234.016 849.661 234.553 846.748 235.612L847.431 237.492ZM855.346 236.016C857.489 236.016 859.085 236.175 860.179 236.463L860.688 234.529C859.35 234.177 857.555 234.016 855.346 234.016V236.016ZM860.228 236.475C861.398 236.721 862.604 237.061 863.847 237.496L864.508 235.608C863.191 235.147 861.902 234.783 860.64 234.517L860.228 236.475ZM865.178 236.552V216.968H863.178V236.552H865.178ZM864.178 217.968H877.906V215.968H864.178V217.968ZM876.906 216.968V281H878.906V216.968H876.906ZM877.906 280H865.042V282H877.906V280ZM866.034 280.873L865.458 276.361L863.474 276.615L864.05 281.127L866.034 280.873ZM864.692 247.503C863.635 246.868 862.478 246.414 861.227 246.136L860.793 248.088C861.846 248.322 862.8 248.7 863.663 249.217L864.692 247.503ZM861.239 246.139C860.049 245.859 858.589 245.728 856.882 245.728V247.728C858.502 247.728 859.795 247.853 860.781 248.085L861.239 246.139ZM856.882 245.728C853.112 245.728 850.061 247.01 847.859 249.638L849.392 250.922C851.158 248.814 853.611 247.728 856.882 247.728V245.728ZM847.849 249.65C845.755 252.233 844.746 255.51 844.746 259.4H846.746C846.746 255.866 847.656 253.063 849.403 250.91L847.849 249.65ZM844.746 259.4C844.746 262.83 845.589 265.745 847.349 268.068L848.943 266.86C847.503 264.959 846.746 262.498 846.746 259.4H844.746ZM847.358 268.08C849.191 270.426 851.917 271.536 855.346 271.536V269.536C852.375 269.536 850.301 268.598 848.934 266.848L847.358 268.08ZM855.346 271.536C856.99 271.536 858.455 271.262 859.708 270.673L858.856 268.863C857.933 269.298 856.774 269.536 855.346 269.536V271.536ZM859.729 270.662C860.996 270.029 862.046 269.204 862.852 268.178L861.279 266.942C860.678 267.708 859.872 268.355 858.835 268.874L859.729 270.662ZM862.825 268.211C863.698 267.193 864.309 265.999 864.665 264.646L862.731 264.138C862.447 265.217 861.97 266.135 861.306 266.909L862.825 268.211ZM864.665 264.646C865.007 263.346 865.178 262.012 865.178 260.648H863.178C863.178 261.844 863.028 263.006 862.731 264.138L864.665 264.646ZM865.178 260.648V248.36H863.178V260.648H865.178ZM928.731 276.104L929.261 276.952L930.123 276.413L929.57 275.56L928.731 276.104ZM926.427 277.736L926.994 278.56L927.011 278.548L927.027 278.536L926.427 277.736ZM922.395 279.848L922.005 278.927L921.999 278.93L921.992 278.933L922.395 279.848ZM916.635 281.672L916.412 280.697L916.399 280.7L916.386 280.704L916.635 281.672ZM898.587 280.808L898.219 281.738L898.227 281.741L898.236 281.744L898.587 280.808ZM890.715 275.816L890.008 276.523L890.013 276.528L890.019 276.534L890.715 275.816ZM885.819 268.232L884.879 268.572L884.883 268.584L884.888 268.596L885.819 268.232ZM885.723 249.32L884.785 248.973L884.781 248.985L885.723 249.32ZM890.331 241.64L889.592 240.966L890.331 241.64ZM897.627 236.456L898.033 237.37L898.042 237.366L898.05 237.362L897.627 236.456ZM917.019 236.36L917.441 235.453V235.453L917.019 236.36ZM923.931 241.736L923.152 242.363L923.162 242.375L923.172 242.387L923.931 241.736ZM928.251 249.896L927.293 250.183L927.295 250.189L928.251 249.896ZM929.691 262.568V263.568H930.691V262.568H929.691ZM897.627 262.568V261.568H896.6L896.627 262.594L897.627 262.568ZM900.795 269L900.123 269.741L900.136 269.752L900.148 269.763L900.795 269ZM918.171 270.152L918.587 271.061L918.597 271.057L918.608 271.052L918.171 270.152ZM923.067 267.368L923.906 266.824L923.324 265.926L922.467 266.568L923.067 267.368ZM916.635 253.736V254.736H917.635V253.736H916.635ZM916.059 250.856L915.123 251.207L915.126 251.217L915.131 251.227L916.059 250.856ZM914.331 248.072L915.066 247.394L914.331 248.072ZM911.451 246.056L911.004 246.95L911.024 246.961L911.045 246.97L911.451 246.056ZM903.099 246.056L903.487 246.978L903.507 246.969L903.527 246.96L903.099 246.056ZM900.027 248.072L899.32 247.365L899.306 247.379L899.292 247.394L900.027 248.072ZM898.203 250.856L897.287 250.455L897.28 250.47L897.275 250.485L898.203 250.856ZM897.627 253.736H896.627V254.736H897.627V253.736ZM928.201 275.256C927.651 275.6 926.854 276.165 925.827 276.936L927.027 278.536C928.048 277.771 928.787 277.248 929.261 276.952L928.201 275.256ZM925.86 276.912C924.911 277.565 923.633 278.239 922.005 278.927L922.785 280.769C924.485 280.049 925.895 279.315 926.994 278.56L925.86 276.912ZM921.992 278.933C920.465 279.605 918.608 280.195 916.412 280.697L916.858 282.647C919.142 282.125 921.125 281.499 922.798 280.763L921.992 278.933ZM916.386 280.704C914.244 281.254 911.771 281.536 908.955 281.536V283.536C911.899 283.536 914.546 283.242 916.884 282.64L916.386 280.704ZM908.955 281.536C905.215 281.536 901.88 280.975 898.938 279.872L898.236 281.744C901.438 282.945 905.015 283.536 908.955 283.536V281.536ZM898.955 279.878C895.994 278.706 893.485 277.111 891.411 275.098L890.019 276.534C892.297 278.745 895.036 280.478 898.219 281.738L898.955 279.878ZM891.422 275.109C889.413 273.1 887.855 270.691 886.75 267.868L884.888 268.596C886.087 271.661 887.793 274.308 890.008 276.523L891.422 275.109ZM886.759 267.892C885.715 265.005 885.187 261.826 885.187 258.344H883.187C883.187 262.03 883.747 265.443 884.879 268.572L886.759 267.892ZM885.187 258.344C885.187 255.319 885.68 252.425 886.665 249.655L884.781 248.985C883.718 251.975 883.187 255.097 883.187 258.344H885.187ZM886.661 249.667C887.707 246.835 889.178 244.388 891.07 242.314L889.592 240.966C887.516 243.244 885.915 245.917 884.785 248.973L886.661 249.667ZM891.07 242.314C892.954 240.247 895.27 238.598 898.033 237.37L897.221 235.542C894.224 236.874 891.676 238.681 889.592 240.966L891.07 242.314ZM898.05 237.362C900.779 236.088 903.896 235.44 907.419 235.44V233.44C903.646 233.44 900.235 234.136 897.204 235.55L898.05 237.362ZM907.419 235.44C910.95 235.44 914.001 236.059 916.597 237.267L917.441 235.453C914.533 234.101 911.184 233.44 907.419 233.44V235.44ZM916.597 237.267C919.214 238.484 921.395 240.182 923.152 242.363L924.71 241.109C922.755 238.682 920.328 236.796 917.441 235.453L916.597 237.267ZM923.172 242.387C924.99 244.508 926.368 247.099 927.293 250.183L929.209 249.609C928.214 246.293 926.712 243.444 924.69 241.085L923.172 242.387ZM927.295 250.189C928.222 253.217 928.691 256.573 928.691 260.264H930.691C930.691 256.403 930.2 252.847 929.207 249.603L927.295 250.189ZM928.691 260.264V262.568H930.691V260.264H928.691ZM929.691 261.568H897.627V263.568H929.691V261.568ZM896.627 262.594C896.7 265.338 897.903 267.729 900.123 269.741L901.467 268.259C899.591 266.559 898.682 264.662 898.627 262.542L896.627 262.594ZM900.148 269.763C902.491 271.751 905.626 272.688 909.435 272.688V270.688C905.948 270.688 903.323 269.833 901.442 268.237L900.148 269.763ZM909.435 272.688C913.102 272.688 916.171 272.166 918.587 271.061L917.755 269.243C915.691 270.186 912.936 270.688 909.435 270.688V272.688ZM918.608 271.052C920.862 269.957 922.564 268.995 923.667 268.168L922.467 266.568C921.522 267.277 919.96 268.171 917.734 269.252L918.608 271.052ZM922.228 267.912L927.892 276.648L929.57 275.56L923.906 266.824L922.228 267.912ZM917.635 253.736C917.635 252.639 917.415 251.554 916.987 250.485L915.131 251.227C915.471 252.078 915.635 252.913 915.635 253.736H917.635ZM916.995 250.505C916.564 249.356 915.918 248.317 915.066 247.394L913.596 248.75C914.28 249.491 914.786 250.308 915.123 251.207L916.995 250.505ZM915.066 247.394C914.195 246.451 913.119 245.703 911.857 245.142L911.045 246.97C912.087 247.433 912.931 248.029 913.596 248.75L915.066 247.394ZM911.898 245.162C910.578 244.501 909.041 244.192 907.323 244.192V246.192C908.805 246.192 910.02 246.459 911.004 246.95L911.898 245.162ZM907.323 244.192C905.603 244.192 904.044 244.502 902.671 245.152L903.527 246.96C904.586 246.458 905.843 246.192 907.323 246.192V244.192ZM902.711 245.134C901.39 245.69 900.254 246.431 899.32 247.365L900.734 248.779C901.464 248.049 902.376 247.446 903.487 246.978L902.711 245.134ZM899.292 247.394C898.45 248.306 897.78 249.328 897.287 250.455L899.119 251.257C899.522 250.336 900.068 249.502 900.762 248.75L899.292 247.394ZM897.275 250.485C896.847 251.554 896.627 252.639 896.627 253.736H898.627C898.627 252.913 898.791 252.078 899.131 251.227L897.275 250.485ZM897.627 254.736H916.635V252.736H897.627V254.736ZM935.658 216.968V215.968H934.658V216.968H935.658ZM949.482 216.968H950.482V215.968H949.482V216.968ZM949.482 281V282H950.482V281H949.482ZM935.658 281H934.658V282H935.658V281ZM935.658 217.968H949.482V215.968H935.658V217.968ZM948.482 216.968V281H950.482V216.968H948.482ZM949.482 280H935.658V282H949.482V280ZM936.658 281V216.968H934.658V281H936.658ZM983.85 276.776L984.846 276.685L984.632 274.328L983.091 276.125L983.85 276.776ZM977.994 280.904L977.618 279.977L977.609 279.981L977.994 280.904ZM965.13 281.672L964.879 282.64L964.887 282.642L965.13 281.672ZM960.234 279.464L959.64 280.268L959.659 280.283L959.679 280.296L960.234 279.464ZM956.49 275.144L955.609 275.616L955.615 275.628L955.622 275.64L956.49 275.144ZM956.586 261.416L955.703 260.947L955.697 260.958L955.692 260.969L956.586 261.416ZM961.002 256.328L961.589 257.138L961.598 257.131L961.606 257.125L961.002 256.328ZM967.53 253.16L967.265 252.196L967.259 252.198L967.53 253.16ZM980.586 252.2L980.546 253.199L980.548 253.199L980.586 252.2ZM983.85 252.488L983.607 253.458L984.85 253.769V252.488H983.85ZM983.082 248.648L982.202 249.122L982.224 249.164L982.25 249.203L983.082 248.648ZM981.162 246.632L980.562 247.432L980.599 247.46L980.638 247.484L981.162 246.632ZM978.474 245.48L978.231 246.45L978.26 246.457L978.29 246.463L978.474 245.48ZM967.53 246.248L967.179 245.312L967.169 245.315L967.53 246.248ZM962.442 248.84L961.611 249.397L962.173 250.234L963.005 249.666L962.442 248.84ZM956.778 240.392L956.187 239.586L955.413 240.153L955.947 240.949L956.778 240.392ZM960.042 238.28L960.543 239.145L960.042 238.28ZM964.362 236.36L964.689 237.305L964.362 236.36ZM969.93 235.016L970.084 236.004L970.097 236.002L970.109 236L969.93 235.016ZM992.298 240.008L991.547 240.668L991.553 240.675L992.298 240.008ZM997.194 281V282H998.194V281H997.194ZM984.234 281L983.238 281.091L983.321 282H984.234V281ZM983.85 261.128H984.85V260.308L984.046 260.147L983.85 261.128ZM982.026 260.936L981.885 261.926L981.92 261.931L981.955 261.933L982.026 260.936ZM978.282 272.072L978.58 273.026L978.598 273.021L978.615 273.015L978.282 272.072ZM981.066 270.536L980.456 269.743L980.441 269.755L980.426 269.768L981.066 270.536ZM983.082 268.136L982.2 267.665L983.082 268.136ZM983.091 276.125C981.667 277.786 979.851 279.072 977.618 279.977L978.37 281.831C980.873 280.816 982.961 279.35 984.609 277.427L983.091 276.125ZM977.609 279.981C975.445 280.883 972.986 281.344 970.218 281.344V283.344C973.21 283.344 975.935 282.845 978.379 281.827L977.609 279.981ZM970.218 281.344C968.711 281.344 967.097 281.133 965.373 280.702L964.887 282.642C966.747 283.107 968.525 283.344 970.218 283.344V281.344ZM965.381 280.704C963.765 280.285 962.235 279.596 960.789 278.632L959.679 280.296C961.305 281.38 963.039 282.163 964.879 282.64L965.381 280.704ZM960.828 278.66C959.481 277.664 958.322 276.335 957.358 274.648L955.622 275.64C956.706 277.537 958.042 279.088 959.64 280.268L960.828 278.66ZM957.371 274.672C956.51 273.064 956.05 270.998 956.05 268.424H954.05C954.05 271.226 954.55 273.64 955.609 275.616L957.371 274.672ZM956.05 268.424C956.05 265.932 956.535 263.753 957.48 261.863L955.692 260.969C954.589 263.175 954.05 265.668 954.05 268.424H956.05ZM957.469 261.885C958.486 259.97 959.858 258.391 961.589 257.138L960.415 255.518C958.434 256.953 956.862 258.766 955.703 260.947L957.469 261.885ZM961.606 257.125C963.352 255.8 965.412 254.796 967.801 254.122L967.259 252.198C964.656 252.932 962.364 254.04 960.398 255.531L961.606 257.125ZM967.795 254.124C970.26 253.446 972.922 253.104 975.786 253.104V251.104C972.762 251.104 969.92 251.466 967.265 252.196L967.795 254.124ZM975.786 253.104C977.373 253.104 978.959 253.136 980.546 253.199L980.626 251.201C979.013 251.136 977.399 251.104 975.786 251.104V253.104ZM980.548 253.199C982.233 253.264 983.214 253.36 983.607 253.458L984.093 251.518C983.462 251.36 982.267 251.264 980.624 251.201L980.548 253.199ZM984.85 252.488V251.528H982.85V252.488H984.85ZM984.85 251.528C984.85 250.228 984.56 249.062 983.914 248.093L982.25 249.203C982.628 249.77 982.85 250.524 982.85 251.528H984.85ZM983.962 248.174C983.428 247.181 982.663 246.381 981.686 245.78L980.638 247.484C981.325 247.907 981.84 248.451 982.202 249.122L983.962 248.174ZM981.762 245.832C980.861 245.156 979.82 244.715 978.658 244.497L978.29 246.463C979.176 246.629 979.927 246.956 980.562 247.432L981.762 245.832ZM978.717 244.51C977.606 244.232 976.436 244.096 975.21 244.096V246.096C976.288 246.096 977.294 246.216 978.231 246.45L978.717 244.51ZM975.21 244.096C972.063 244.096 969.375 244.488 967.179 245.312L967.881 247.184C969.781 246.472 972.213 246.096 975.21 246.096V244.096ZM967.169 245.315C965.13 246.105 963.363 247.002 961.879 248.014L963.005 249.666C964.337 248.758 965.961 247.927 967.891 247.181L967.169 245.315ZM963.273 248.283L957.609 239.835L955.947 240.949L961.611 249.397L963.273 248.283ZM957.369 241.198C958.296 240.519 959.353 239.835 960.543 239.145L959.541 237.415C958.299 238.133 957.18 238.857 956.187 239.586L957.369 241.198ZM960.543 239.145C961.692 238.48 963.071 237.865 964.689 237.305L964.035 235.415C962.325 236.007 960.824 236.672 959.541 237.415L960.543 239.145ZM964.689 237.305C966.288 236.751 968.085 236.316 970.084 236.004L969.776 234.028C967.679 234.356 965.764 234.817 964.035 235.415L964.689 237.305ZM970.109 236C972.149 235.629 974.488 235.44 977.13 235.44V233.44C974.396 233.44 971.935 233.635 969.751 234.032L970.109 236ZM977.13 235.44C983.806 235.44 988.538 237.246 991.547 240.668L993.049 239.348C989.53 235.346 984.15 233.44 977.13 233.44V235.44ZM991.553 240.675C994.612 244.094 996.194 248.762 996.194 254.792H998.194C998.194 248.406 996.512 243.218 993.043 239.341L991.553 240.675ZM996.194 254.792V281H998.194V254.792H996.194ZM997.194 280H984.234V282H997.194V280ZM985.23 280.909L984.846 276.685L982.854 276.867L983.238 281.091L985.23 280.909ZM984.046 260.147C983.655 260.069 982.987 260.002 982.097 259.939L981.955 261.933C982.857 261.998 983.405 262.059 983.654 262.109L984.046 260.147ZM982.167 259.946C981.214 259.81 980.141 259.744 978.954 259.744V261.744C980.071 261.744 981.046 261.806 981.885 261.926L982.167 259.946ZM978.954 259.744C975.078 259.744 972.095 260.282 970.232 261.549L971.356 263.203C972.693 262.294 975.15 261.744 978.954 261.744V259.744ZM970.232 261.549C968.35 262.829 967.394 264.679 967.394 266.984H969.394C969.394 265.321 970.038 264.099 971.356 263.203L970.232 261.549ZM967.394 266.984C967.394 269.049 968.026 270.762 969.436 271.93C970.81 273.068 972.761 273.552 975.114 273.552V271.552C972.987 271.552 971.578 271.108 970.712 270.39C969.882 269.702 969.394 268.631 969.394 266.984H967.394ZM975.114 273.552C976.302 273.552 977.458 273.377 978.58 273.026L977.984 271.118C977.058 271.407 976.102 271.552 975.114 271.552V273.552ZM978.615 273.015C979.798 272.597 980.834 272.031 981.706 271.304L980.426 269.768C979.762 270.321 978.942 270.779 977.949 271.129L978.615 273.015ZM981.676 271.329C982.625 270.599 983.388 269.687 983.964 268.607L982.2 267.665C981.752 268.505 981.171 269.193 980.456 269.743L981.676 271.329ZM983.964 268.607C984.566 267.478 984.85 266.191 984.85 264.776H982.85C982.85 265.921 982.622 266.874 982.2 267.665L983.964 268.607ZM984.85 264.776V261.128H982.85V264.776H984.85ZM1009.83 267.08L1010.51 266.342L1009.7 265.609L1009.04 266.469L1009.83 267.08ZM1015.59 270.44L1015.24 271.375L1015.25 271.378L1015.59 270.44ZM1027.69 271.016L1027.33 270.082L1027.69 271.016ZM1029.22 266.504L1028.33 266.951L1028.36 267.021L1028.41 267.085L1029.22 266.504ZM1027.69 265.16L1027.18 266.024L1027.21 266.04L1027.24 266.054L1027.69 265.16ZM1024.42 263.816L1024.11 264.765L1024.12 264.769L1024.42 263.816ZM1019.24 262.28L1019.5 261.315L1019.49 261.312L1019.24 262.28ZM1014.06 260.552L1013.64 261.46L1013.66 261.469L1013.68 261.478L1014.06 260.552ZM1009.54 257.768L1008.9 258.53L1008.91 258.538L1008.92 258.545L1009.54 257.768ZM1006.38 253.832L1005.48 254.279L1005.49 254.294L1005.5 254.308L1006.38 253.832ZM1006.66 242.792L1007.53 243.292L1007.53 243.285L1007.54 243.278L1006.66 242.792ZM1010.6 238.376L1011.19 239.183L1011.2 239.18L1010.6 238.376ZM1016.65 235.496L1016.92 236.46L1016.92 236.457L1016.93 236.455L1016.65 235.496ZM1034.31 235.784L1034.02 236.739L1034.02 236.742L1034.03 236.745L1034.31 235.784ZM1042.28 239.528L1043.12 240.068L1043.65 239.251L1042.84 238.703L1042.28 239.528ZM1036.42 248.648L1035.88 249.486L1036.72 250.036L1037.27 249.188L1036.42 248.648ZM1031.34 246.056L1030.95 246.98L1030.96 246.984L1031.34 246.056ZM1020.39 245.864L1020.91 246.721L1020.93 246.709L1020.95 246.696L1020.39 245.864ZM1029.99 253.928L1030.26 252.964L1030.25 252.961L1029.99 253.928ZM1039.98 259.208L1039.24 259.883L1039.24 259.888L1039.25 259.894L1039.98 259.208ZM1041.42 274.568L1040.58 274.027L1040.57 274.038L1040.56 274.049L1041.42 274.568ZM1036.9 279.08L1037.43 279.93L1037.44 279.925L1036.9 279.08ZM1030.47 281.672L1030.24 280.699L1030.24 280.7L1030.47 281.672ZM1011.75 280.904L1012.04 279.947L1011.75 280.904ZM1003.02 275.912L1002.22 275.301L1001.69 275.997L1002.31 276.619L1003.02 275.912ZM1009.16 267.818C1010.74 269.267 1012.78 270.446 1015.24 271.375L1015.95 269.505C1013.67 268.642 1011.86 267.581 1010.51 266.342L1009.16 267.818ZM1015.25 271.378C1017.77 272.309 1020.23 272.784 1022.6 272.784V270.784C1020.5 270.784 1018.28 270.363 1015.94 269.502L1015.25 271.378ZM1022.6 272.784C1024.72 272.784 1026.55 272.52 1028.04 271.95L1027.33 270.082C1026.14 270.536 1024.57 270.784 1022.6 270.784V272.784ZM1028.04 271.95C1028.87 271.636 1029.56 271.147 1030.03 270.449C1030.5 269.753 1030.7 268.93 1030.7 268.04H1028.7C1028.7 268.622 1028.57 269.031 1028.37 269.327C1028.17 269.621 1027.85 269.884 1027.33 270.082L1028.04 271.95ZM1030.7 268.04C1030.7 267.266 1030.48 266.549 1030.04 265.923L1028.41 267.085C1028.6 267.355 1028.7 267.662 1028.7 268.04H1030.7ZM1030.12 266.057C1029.73 265.276 1029.01 264.7 1028.14 264.266L1027.24 266.054C1027.91 266.388 1028.21 266.708 1028.33 266.951L1030.12 266.057ZM1028.19 264.296C1027.33 263.795 1026.17 263.321 1024.73 262.863L1024.12 264.769C1025.5 265.207 1026.51 265.629 1027.18 266.024L1028.19 264.296ZM1024.74 262.867C1023.37 262.411 1021.62 261.894 1019.5 261.315L1018.98 263.245C1021.08 263.818 1022.79 264.325 1024.11 264.765L1024.74 262.867ZM1019.49 261.312C1017.81 260.876 1016.12 260.314 1014.43 259.626L1013.68 261.478C1015.45 262.198 1017.22 262.788 1018.99 263.248L1019.49 261.312ZM1014.48 259.644C1012.88 258.909 1011.45 258.024 1010.17 256.991L1008.92 258.545C1010.33 259.688 1011.9 260.659 1013.64 261.46L1014.48 259.644ZM1010.19 257.006C1009.01 256.001 1008.03 254.787 1007.26 253.356L1005.5 254.308C1006.39 255.949 1007.52 257.359 1008.9 258.53L1010.19 257.006ZM1007.27 253.385C1006.58 252.012 1006.22 250.378 1006.22 248.456H1004.22C1004.22 250.63 1004.63 252.58 1005.48 254.279L1007.27 253.385ZM1006.22 248.456C1006.22 246.502 1006.67 244.789 1007.53 243.292L1005.8 242.292C1004.74 244.123 1004.22 246.186 1004.22 248.456H1006.22ZM1007.54 243.278C1008.43 241.682 1009.64 240.318 1011.19 239.183L1010.01 237.569C1008.23 238.866 1006.82 240.446 1005.79 242.306L1007.54 243.278ZM1011.2 239.18C1012.81 237.98 1014.72 237.07 1016.92 236.46L1016.38 234.532C1013.97 235.202 1011.84 236.212 1010.01 237.572L1011.2 239.18ZM1016.93 236.455C1019.2 235.78 1021.63 235.44 1024.23 235.44V233.44C1021.46 233.44 1018.83 233.804 1016.36 234.537L1016.93 236.455ZM1024.23 235.44C1028 235.44 1031.25 235.88 1034.02 236.739L1034.61 234.829C1031.61 233.896 1028.15 233.44 1024.23 233.44V235.44ZM1034.03 236.745C1036.81 237.548 1039.37 238.75 1041.72 240.353L1042.84 238.703C1040.32 236.978 1037.57 235.684 1034.59 234.823L1034.03 236.745ZM1041.44 238.988L1035.58 248.108L1037.27 249.188L1043.12 240.068L1041.44 238.988ZM1036.97 247.81C1035.43 246.809 1033.68 245.916 1031.71 245.128L1030.96 246.984C1032.83 247.732 1034.47 248.567 1035.88 249.486L1036.97 247.81ZM1031.72 245.132C1029.72 244.306 1027.48 243.904 1025 243.904V245.904C1027.26 245.904 1029.24 246.27 1030.95 246.98L1031.72 245.132ZM1025 243.904C1022.83 243.904 1021.05 244.224 1019.84 245.032L1020.95 246.696C1021.66 246.224 1022.94 245.904 1025 245.904V243.904ZM1019.88 245.007C1018.65 245.743 1017.95 246.851 1017.95 248.264H1019.95C1019.95 247.629 1020.21 247.137 1020.91 246.721L1019.88 245.007ZM1017.95 248.264C1017.95 249.249 1018.29 250.13 1018.96 250.858C1019.6 251.564 1020.51 252.086 1021.59 252.47L1022.26 250.586C1021.36 250.266 1020.78 249.892 1020.44 249.51C1020.11 249.15 1019.95 248.751 1019.95 248.264H1017.95ZM1021.59 252.47C1023.62 253.188 1026.33 253.996 1029.74 254.895L1030.25 252.961C1026.87 252.068 1024.21 251.276 1022.26 250.586L1021.59 252.47ZM1029.72 254.892C1034.25 256.148 1037.37 257.839 1039.24 259.883L1040.71 258.533C1038.49 256.097 1034.95 254.268 1030.26 252.964L1029.72 254.892ZM1039.25 259.894C1041.15 261.912 1042.14 264.623 1042.14 268.136H1044.14C1044.14 264.225 1043.03 260.984 1040.7 258.522L1039.25 259.894ZM1042.14 268.136C1042.14 270.474 1041.61 272.423 1040.58 274.027L1042.26 275.109C1043.53 273.129 1044.14 270.79 1044.14 268.136H1042.14ZM1040.56 274.049C1039.56 275.698 1038.17 277.095 1036.37 278.235L1037.44 279.925C1039.48 278.633 1041.1 277.022 1042.27 275.087L1040.56 274.049ZM1036.38 278.23C1034.62 279.318 1032.58 280.144 1030.24 280.699L1030.7 282.645C1033.22 282.048 1035.47 281.146 1037.43 279.93L1036.38 278.23ZM1030.24 280.7C1027.95 281.257 1025.59 281.536 1023.18 281.536V283.536C1025.75 283.536 1028.26 283.239 1030.71 282.644L1030.24 280.7ZM1023.18 281.536C1019.24 281.536 1015.53 281.004 1012.04 279.947L1011.46 281.861C1015.15 282.98 1019.05 283.536 1023.18 283.536V281.536ZM1012.04 279.947C1008.59 278.898 1005.83 277.309 1003.72 275.205L1002.31 276.619C1004.68 278.995 1007.75 280.734 1011.46 281.861L1012.04 279.947ZM1003.81 276.523L1010.62 267.691L1009.04 266.469L1002.22 275.301L1003.81 276.523ZM1051.73 262.76L1051.27 261.87L1050.37 262.333L1050.85 263.231L1051.73 262.76ZM1075.92 250.376L1076.38 251.266L1078.1 250.383L1076.38 249.489L1075.92 250.376ZM1052.11 237.992L1051.22 237.538L1050.77 238.421L1051.65 238.879L1052.11 237.992ZM1057.1 228.2L1057.58 227.318L1056.68 226.837L1056.21 227.746L1057.1 228.2ZM1091.18 246.44H1092.18V245.841L1091.66 245.558L1091.18 246.44ZM1091.18 254.6L1091.66 255.482L1092.18 255.199V254.6H1091.18ZM1057.1 272.84L1056.22 273.311L1056.69 274.194L1057.58 273.722L1057.1 272.84ZM1052.18 263.65L1076.38 251.266L1075.47 249.486L1051.27 261.87L1052.18 263.65ZM1076.38 249.489L1052.57 237.105L1051.65 238.879L1075.46 251.263L1076.38 249.489ZM1053 238.446L1058 228.654L1056.21 227.746L1051.22 237.538L1053 238.446ZM1056.63 229.082L1090.71 247.322L1091.66 245.558L1057.58 227.318L1056.63 229.082ZM1090.18 246.44V254.6H1092.18V246.44H1090.18ZM1090.71 253.718L1056.63 271.958L1057.58 273.722L1091.66 255.482L1090.71 253.718ZM1057.99 272.369L1052.61 262.289L1050.85 263.231L1056.22 273.311L1057.99 272.369Z" fill="black"/>
</svg>
