<svg width="505" height="486" viewBox="0 0 505 486" fill="none" xmlns="http://www.w3.org/2000/svg">
<path d="M326.554 414.849C308.314 415.895 289.989 414.438 271.954 410.776C297.581 452.542 327.724 466.786 356.967 463.655C386.375 460.5 415.147 439.974 437.725 412.164C460.469 384.137 476.814 348.843 481.188 316.433C485.5 284.377 477.973 255.217 452.967 239.248C453.489 240.498 453.996 241.764 454.481 243.029C462.538 264.003 465.271 286.575 462.194 308.254C459.113 329.992 450.205 350.83 434.986 368.28C412.736 393.786 377.083 411.949 326.553 414.85L326.554 414.849ZM123.713 282.412C123.027 281.306 123.366 279.861 124.464 279.172C125.57 278.485 127.015 278.824 127.705 279.922C130.939 285.126 134.937 290.665 139.335 296.101C143.82 301.664 148.682 307.083 153.491 311.869C154.412 312.788 154.415 314.267 153.508 315.194C152.589 316.115 151.11 316.118 150.183 315.211C145.216 310.262 140.238 304.724 135.68 299.079C131.199 293.526 127.079 287.823 123.725 282.413L123.713 282.412ZM419.468 290.981L416.645 283.973L423.653 281.15L426.476 288.158L419.468 290.981ZM279.377 347.375L276.554 340.367L283.562 337.544L286.385 344.552L279.377 347.375ZM307.399 336.092L304.576 329.083L311.585 326.26L314.408 333.269L307.399 336.092ZM335.422 324.808L332.599 317.799L339.607 314.977L342.43 321.985L335.422 324.808ZM363.444 313.524L360.621 306.516L367.63 303.693L370.453 310.701L363.444 313.524ZM391.467 302.241L388.644 295.232L395.652 292.409L398.475 299.418L391.467 302.241ZM19.7847 441.079L17.4685 448.269L10.2787 445.953L12.5949 438.763L19.7847 441.079ZM95.9081 334.058L88.7256 331.745L86.4094 338.935C88.7786 339.704 91.1563 340.464 93.5255 341.233L93.5977 341.255L95.9066 334.062L95.9081 334.058ZM98.6361 361.251C96.2439 360.485 93.8462 359.682 91.4463 358.935L89.1301 366.124C91.5284 366.906 93.9205 367.672 96.3199 368.441L98.6361 361.251ZM69.8964 351.981L62.7066 349.665L60.3904 356.855C62.7888 357.636 65.1808 358.402 67.5802 359.171L69.8964 351.981ZM95.5709 386.579L88.381 384.263L86.0648 391.453L93.2546 393.769L95.5709 386.579ZM66.8312 377.31C64.4328 376.528 62.0408 375.762 59.6414 374.993L57.3252 382.183C59.7282 382.954 62.1156 383.731 64.515 384.5L66.8312 377.31ZM38.0915 368.04C35.6931 367.259 33.3011 366.493 30.9017 365.724L28.5855 372.914C30.9885 373.684 33.3759 374.461 35.7753 375.23L38.0915 368.04ZM107.411 416.717C105.013 415.936 102.621 415.17 100.221 414.401L97.905 421.591C100.308 422.361 102.695 423.138 105.095 423.907L107.411 416.717ZM78.6713 407.448C76.2729 406.666 73.8809 405.9 71.4815 405.132L69.1653 412.321C71.5683 413.092 73.9557 413.869 76.3551 414.638L78.6713 407.448ZM49.9316 398.178C47.5286 397.408 45.1412 396.631 42.7418 395.862L40.4256 403.052C42.8286 403.822 45.216 404.599 47.6154 405.368L49.9316 398.178ZM21.1919 388.909L14.0022 386.593L11.6859 393.783L18.8758 396.099L21.1919 388.909ZM125.232 448.787L118.042 446.471L115.726 453.661L122.916 455.977L125.232 448.787ZM96.4922 439.518C94.0939 438.737 91.7018 437.971 89.3024 437.202L86.9862 444.392C89.3893 445.162 91.7767 445.939 94.1761 446.708L96.4922 439.518ZM67.7526 430.249C65.3542 429.467 62.9622 428.701 60.5628 427.932L58.2466 435.122C60.6496 435.893 63.037 436.669 65.4364 437.438L67.7526 430.249ZM39.0129 420.979L31.8231 418.663L29.5069 425.853L36.6967 428.169L39.0129 420.979ZM10.2732 411.71L3.08338 409.394L0.767183 416.583L7.95699 418.9L10.2732 411.71ZM134.811 478.207L132.495 485.397L125.305 483.081L127.621 475.891L134.811 478.207ZM106.071 468.938L103.755 476.128L96.5653 473.811L98.8815 466.622L106.071 468.938ZM77.3316 459.668L75.0154 466.858L67.8256 464.542L70.1418 457.352L77.3316 459.668ZM48.5919 450.399L46.2757 457.589L39.0859 455.273L41.4021 448.083L48.5919 450.399ZM446.473 84.5968L443.65 77.5882L450.658 74.7653L453.481 81.7738L446.473 84.5968ZM357.728 282.309L354.905 275.301L361.913 272.478L364.736 279.486L357.728 282.309ZM385.75 271.026L382.927 264.017L389.936 261.194L392.759 268.203L385.75 271.026ZM413.773 259.742L410.95 252.734L417.958 249.911L420.781 256.919L413.773 259.742ZM441.795 248.459L438.972 241.45L444.778 239.109C431.827 210.305 407.934 185.407 374.584 172.132C349.425 162.114 320.104 158.211 290.865 154.323C254.46 149.482 218.173 144.643 189.146 128.093C179.548 122.62 171.7 114.591 164.24 106.951C157.25 99.8009 150.628 93.0142 143.63 89.6198C135.259 85.5562 127.209 83.3016 119.675 83.5364C112.37 83.7665 105.433 86.3922 99.0463 92.0587C85.8818 103.724 78.7434 121.078 75.5741 140.071C71.3689 165.251 74.1114 193.202 79.0846 214.854C91.964 270.977 126.314 320.472 171.029 355.281C216.088 390.353 271.614 410.458 326.224 407.329C374.523 404.559 408.418 387.414 429.41 363.36C443.632 347.064 451.961 327.551 454.842 307.193C457.718 286.897 455.184 265.75 447.695 246.089L441.813 248.457L441.795 248.459ZM469.817 237.175L466.995 230.166L474.003 227.343L476.826 234.352L469.817 237.175ZM497.84 225.891L495.017 218.883L502.026 216.06L504.848 223.068L497.84 225.891ZM456.53 215.522C457.546 215.115 458.562 214.708 459.568 214.296C460.885 213.759 462.208 213.238 463.524 212.702L460.701 205.693C458.357 206.632 456.037 207.577 453.693 208.516L456.516 215.525L456.53 215.522ZM437.034 196.377C439.367 195.434 441.699 194.494 444.043 193.555L441.22 186.546C438.876 187.485 436.544 188.425 434.211 189.369L437.034 196.377ZM465.056 185.094C467.39 184.15 469.721 183.21 472.065 182.271L469.242 175.262C466.909 176.206 464.578 177.146 462.234 178.085L465.056 185.094ZM423.187 174.958L430.195 172.135L427.372 165.126L420.364 167.949L423.187 174.958ZM451.209 163.674C453.542 162.731 455.874 161.791 458.218 160.851L455.395 153.843C453.062 154.787 450.73 155.727 448.386 156.666L451.209 163.674ZM479.232 152.391C481.565 151.447 483.896 150.507 486.24 149.568L483.417 142.559C481.084 143.503 478.753 144.443 476.409 145.382L479.232 152.391ZM394.819 159.377C397.163 158.438 399.484 157.493 401.828 156.554L399.005 149.545C396.672 150.489 394.34 151.429 391.996 152.368L394.819 159.377ZM422.842 148.093L429.85 145.27L427.027 138.262L420.019 141.085L422.842 148.093ZM450.864 136.81L457.873 133.987L455.05 126.978L448.041 129.801L450.864 136.81ZM478.887 125.526L485.895 122.703L483.072 115.695L476.064 118.518L478.887 125.526ZM360.628 146.138L367.637 143.315L364.814 136.307L357.805 139.13L360.628 146.138ZM388.651 134.855L395.659 132.032L392.836 125.023L385.828 127.846L388.651 134.855ZM416.673 123.571L423.682 120.748L420.859 113.739L413.85 116.562L416.673 123.571ZM444.696 112.287L451.704 109.464L448.881 102.456L441.873 105.279L444.696 112.287ZM472.718 101.004L479.727 98.1808L476.904 91.1723L469.895 93.9952L472.718 101.004ZM334.479 129.655L331.656 122.646L338.664 119.823L341.487 126.832L334.479 129.655ZM362.501 118.371L359.678 111.363L366.687 108.54L369.51 115.548L362.501 118.371ZM390.523 107.088L387.701 100.079L394.709 97.2561L397.532 104.265L390.523 107.088ZM418.546 95.8041L415.723 88.7955L422.731 85.9726L425.554 92.9811L418.546 95.8041ZM125.921 360.639C127.102 358.884 128.69 357.412 130.54 356.373C132.443 355.309 134.634 354.717 136.977 354.814C139.262 354.897 141.621 355.619 143.897 357.169C146.274 358.783 148.586 361.302 150.62 364.944C166.964 394.165 183.047 401.202 198.902 408.15C203.371 410.106 207.831 412.065 212.334 414.495C221.358 419.363 227.337 425.35 230.737 431.755C234.05 437.998 234.916 444.59 233.729 450.909C232.561 457.112 229.416 463.007 224.672 467.967C218.789 474.133 210.445 478.881 200.447 481.009C176.911 486.018 159.812 468.342 147.685 444.908C136.075 422.478 129.033 394.733 125.406 377.635C125.238 376.833 125.036 376.051 124.842 375.28C123.649 370.507 122.444 365.742 125.895 360.658L125.921 360.639ZM134.204 362.951C133.406 363.4 132.713 364.057 132.17 364.852C130.604 367.168 131.394 370.29 132.171 373.415C132.394 374.31 132.62 375.197 132.806 376.059C136.353 392.77 143.2 419.805 154.386 441.43C165.055 462.053 179.659 477.707 198.904 473.62C207.374 471.822 214.372 467.869 219.238 462.763C222.978 458.842 225.453 454.264 226.345 449.49C227.223 444.826 226.574 439.937 224.101 435.274C221.358 430.117 216.398 425.201 208.8 421.108C204.562 418.822 200.24 416.933 195.897 415.032C178.885 407.576 161.627 400.019 144.048 368.594C142.636 366.06 141.144 364.395 139.68 363.399C138.614 362.676 137.596 362.344 136.676 362.306C135.809 362.275 134.958 362.504 134.2 362.931L134.204 362.951ZM203.951 14.8721C198.435 19.8504 193.023 27.1162 188.764 34.407C184.205 42.2096 181.047 49.8511 180.575 54.5773C180.468 55.6401 180.521 56.4103 180.68 56.9424C180.748 57.1649 180.853 57.2826 180.968 57.3235C181.473 57.5095 182.262 57.4644 183.177 57.2933C185.185 56.9193 187.372 55.9346 188.923 55.0214C200.305 48.313 208.612 47.6869 217.366 47.0418C219.433 46.8907 221.526 46.7294 223.616 46.4938C233.511 45.3701 238.599 41.1621 240.244 35.9922C241.612 31.7096 240.781 26.6534 238.456 22.0364C236.052 17.2611 232.081 13.0354 227.261 10.6032C220.59 7.23686 212.157 7.465 203.941 14.8849L203.951 14.8721ZM182.234 30.6203C186.837 22.7462 192.764 14.8199 198.901 9.28253C209.873 -0.622245 221.416 -0.796525 230.663 3.87037C236.928 7.03256 242.076 12.4924 245.173 18.6429C248.352 24.9401 249.41 32.0355 247.414 38.2879C244.909 46.1278 237.834 52.4412 224.459 53.9742C222.158 54.2399 220.017 54.3936 217.907 54.556C210.059 55.1422 202.626 55.6952 192.755 61.5121C190.602 62.7778 187.504 64.1633 184.526 64.7153C182.417 65.106 180.3 65.0937 178.41 64.4183C176.132 63.5979 174.363 61.9775 173.489 59.2014C173.03 57.7333 172.855 55.9527 173.072 53.8196C173.646 48.0588 177.178 39.2841 182.225 30.6324L182.234 30.6203ZM262.07 408.446C227.909 399.895 195.127 383.465 166.482 361.178C154.436 351.804 143.124 341.39 132.749 330.08C128.241 330.132 123.726 330.15 119.163 330.11C114.684 330.062 110.145 329.946 105.529 329.728C89.7567 328.973 75.108 326.064 62.5472 321.037C49.0022 315.619 37.8366 307.743 30.212 297.468C22.4962 287.072 18.412 274.307 19.1292 259.237C19.5786 249.933 21.8575 239.758 26.2633 228.749C30.1641 218.981 35.562 208.847 42.1656 198.667C48.8802 188.328 56.8562 177.892 65.83 167.696L66.0765 167.913C66.0017 158.127 66.6483 148.273 68.2366 138.778C71.6772 118.217 79.5308 99.3118 94.1418 86.3744C101.963 79.4435 110.494 76.2367 119.536 75.9513C128.353 75.6685 137.563 78.2048 147.012 82.8025C152.113 85.2817 156.791 89.0281 161.395 93.3617C174.515 86.8809 187.853 81.7175 201.075 78.2713C214.181 74.8565 227.197 73.1052 239.802 73.3989L240.032 73.4154C277.955 76.6073 283.15 98.8276 288.333 121.043C290.567 130.622 292.805 140.195 297.972 147.609C325.644 151.322 353.169 155.418 377.466 165.089C409.534 177.858 433.332 200.773 447.69 227.726C483.118 243.759 494.018 278.711 488.813 317.394C484.273 351.157 467.317 387.83 443.751 416.863C420.014 446.106 389.483 467.72 357.939 471.098C324.466 474.687 290.176 457.942 262.062 408.44L262.07 408.446ZM126.12 322.581C100.195 292.165 80.8895 255.927 71.839 216.481C69.2372 205.12 67.2197 192.084 66.4344 178.566C59.7533 186.578 53.7301 194.699 48.5018 202.739C42.1147 212.574 36.9513 222.271 33.2484 231.526C29.1651 241.741 27.0535 251.093 26.6442 259.58C26.0107 272.788 29.5477 283.931 36.2455 292.95C43.024 302.081 53.0758 309.137 65.3387 314.045C77.1182 318.76 90.9377 321.498 105.886 322.21C110.122 322.412 114.605 322.521 119.234 322.564C121.494 322.586 123.79 322.593 126.114 322.582L126.12 322.581ZM167.074 98.9394C167.946 99.8238 168.824 100.724 169.702 101.624C176.783 108.873 184.248 116.502 192.972 121.477C219.849 136.807 253.994 141.729 288.489 146.337C284.808 139.035 282.902 130.889 281.004 122.733C276.452 103.22 271.887 83.7012 239.594 80.9081C227.709 80.6386 215.398 82.297 202.964 85.5391C191.012 88.6573 178.968 93.2266 167.083 98.9302L167.074 98.9394Z" fill="#EABABA"/>
</svg>
