<svg width="1052" height="1052" viewBox="0 0 1052 1052" fill="none" xmlns="http://www.w3.org/2000/svg">
<path d="M767.96 113.09C835.814 146.228 885.258 218.29 905.246 293.508C925.234 368.726 916.292 447.626 906.824 520.74C897.356 593.328 887.362 661.182 846.86 701.158C806.358 741.134 735.348 753.232 676.436 790.578C618.05 827.924 572.288 889.992 518.11 903.668C464.458 917.344 402.39 882.102 334.536 850.542C266.156 818.456 191.464 790.578 141.494 736.926C91.524 683.8 66.276 604.9 84.686 536.52C103.096 468.666 165.164 410.806 219.342 364.518C273.52 318.23 319.282 282.988 368.726 239.33C418.696 195.672 472.348 144.124 542.832 115.194C612.79 86.79 700.106 79.952 767.96 113.09Z" fill="#8A5757"/>
</svg>
