<svg width="912" height="967" viewBox="0 0 912 967" fill="none" xmlns="http://www.w3.org/2000/svg">
<g clip-path="url(#clip0_425_14)">
<path d="M810.461 310.745C846.783 354.026 858.686 418.326 849.49 475.83C840.294 533.335 810.199 584.564 781.502 631.676C752.965 678.429 725.508 721.786 685.665 736.808C645.821 751.83 593.592 738.519 541.961 746.147C490.689 753.935 440.535 782.464 399.334 775.347C358.494 768.391 326.768 725.429 289.967 683.226C252.965 640.504 210.369 598.74 192.511 546.868C174.492 495.355 181.211 433.735 214.583 392.577C247.794 351.779 307.819 331.083 358.931 315.902C410.044 300.721 452.045 290.534 499.121 275.712C546.557 261.05 598.909 242.112 655.894 243.756C712.36 245.599 774.14 267.463 810.461 310.745Z" fill="#8A5757"/>
</g>
<defs>
<clipPath id="clip0_425_14">
<rect width="787.158" height="787.158" fill="white" transform="translate(319.755) rotate(23.9673)"/>
</clipPath>
</defs>
</svg>
