<svg width="394" height="320" viewBox="0 0 394 320" fill="none" xmlns="http://www.w3.org/2000/svg">
<path d="M215.554 414.849C197.314 415.895 178.989 414.438 160.954 410.776C186.581 452.542 216.724 466.786 245.967 463.655C275.375 460.5 304.147 439.974 326.725 412.164C349.469 384.137 365.814 348.843 370.188 316.433C374.5 284.377 366.973 255.217 341.967 239.248C342.489 240.498 342.996 241.764 343.481 243.029C351.538 264.003 354.271 286.575 351.194 308.254C348.113 329.992 339.205 350.83 323.986 368.28C301.736 393.786 266.083 411.949 215.553 414.85L215.554 414.849ZM12.7135 282.412C12.0266 281.306 12.3656 279.861 13.4644 279.172C14.5704 278.485 16.0151 278.824 16.705 279.922C19.9392 285.126 23.9369 290.665 28.3348 296.101C32.8203 301.664 37.6818 307.083 42.4908 311.869C43.4125 312.788 43.4153 314.267 42.5076 315.194C41.589 316.115 40.1097 316.118 39.1833 315.211C34.2158 310.262 29.2381 304.724 24.6802 299.079C20.1988 293.526 16.0785 287.823 12.7253 282.413L12.7135 282.412ZM308.468 290.981L305.645 283.973L312.653 281.15L315.476 288.158L308.468 290.981ZM168.377 347.375L165.554 340.367L172.562 337.544L175.385 344.552L168.377 347.375ZM196.399 336.092L193.576 329.083L200.585 326.26L203.408 333.269L196.399 336.092ZM224.422 324.808L221.599 317.799L228.607 314.977L231.43 321.985L224.422 324.808ZM252.444 313.524L249.621 306.516L256.63 303.693L259.453 310.701L252.444 313.524ZM280.467 302.241L277.644 295.232L284.652 292.409L287.475 299.418L280.467 302.241ZM-91.2153 441.079L-93.5315 448.269L-100.721 445.953L-98.4051 438.763L-91.2153 441.079ZM-15.0919 334.058L-22.2744 331.745L-24.5906 338.935C-22.2214 339.704 -19.8437 340.464 -17.4745 341.233L-17.4023 341.255L-15.0934 334.062L-15.0919 334.058ZM-12.3639 361.251C-14.7561 360.485 -17.1538 359.682 -19.5537 358.935L-21.8699 366.124C-19.4715 366.906 -17.0795 367.672 -14.6801 368.441L-12.3639 361.251ZM-41.1036 351.981L-48.2934 349.665L-50.6096 356.855C-48.2112 357.636 -45.8192 358.402 -43.4198 359.171L-41.1036 351.981ZM-15.4291 386.579L-22.619 384.263L-24.9352 391.453L-17.7454 393.769L-15.4291 386.579ZM-44.1688 377.31C-46.5672 376.528 -48.9592 375.762 -51.3586 374.993L-53.6748 382.183C-51.2718 382.954 -48.8844 383.731 -46.485 384.5L-44.1688 377.31ZM-72.9085 368.04C-75.3069 367.259 -77.6989 366.493 -80.0983 365.724L-82.4145 372.914C-80.0115 373.684 -77.6241 374.461 -75.2247 375.23L-72.9085 368.04ZM-3.58901 416.717C-5.98737 415.936 -8.37942 415.17 -10.7788 414.401L-13.095 421.591C-10.692 422.361 -8.30461 423.138 -5.90521 423.907L-3.58901 416.717ZM-32.3287 407.448C-34.7271 406.666 -37.1191 405.9 -39.5185 405.132L-41.8347 412.321C-39.4317 413.092 -37.0443 413.869 -34.6449 414.638L-32.3287 407.448ZM-61.0684 398.178C-63.4714 397.408 -65.8588 396.631 -68.2582 395.862L-70.5744 403.052C-68.1714 403.822 -65.784 404.599 -63.3846 405.368L-61.0684 398.178ZM-89.8081 388.909L-96.9978 386.593L-99.3141 393.783L-92.1242 396.099L-89.8081 388.909ZM14.232 448.787L7.04216 446.471L4.72594 453.661L11.9157 455.977L14.232 448.787ZM-14.5078 439.518C-16.9061 438.737 -19.2982 437.971 -21.6976 437.202L-24.0138 444.392C-21.6107 445.162 -19.2233 445.939 -16.8239 446.708L-14.5078 439.518ZM-43.2474 430.249C-45.6458 429.467 -48.0378 428.701 -50.4372 427.932L-52.7534 435.122C-50.3504 435.893 -47.963 436.669 -45.5636 437.438L-43.2474 430.249ZM-71.9871 420.979L-79.1769 418.663L-81.4931 425.853L-74.3033 428.169L-71.9871 420.979ZM-100.727 411.71L-107.917 409.394L-110.233 416.583L-103.043 418.9L-100.727 411.71ZM23.811 478.207L21.4947 485.397L14.305 483.081L16.6211 475.891L23.811 478.207ZM-4.92869 468.938L-7.24491 476.128L-14.4347 473.811L-12.1185 466.622L-4.92869 468.938ZM-33.6684 459.668L-35.9846 466.858L-43.1744 464.542L-40.8582 457.352L-33.6684 459.668ZM-62.4081 450.399L-64.7243 457.589L-71.9141 455.273L-69.5979 448.083L-62.4081 450.399ZM335.473 84.5968L332.65 77.5882L339.658 74.7653L342.481 81.7738L335.473 84.5968ZM246.728 282.309L243.905 275.301L250.913 272.478L253.736 279.486L246.728 282.309ZM274.75 271.026L271.927 264.017L278.936 261.194L281.759 268.203L274.75 271.026ZM302.773 259.742L299.95 252.734L306.958 249.911L309.781 256.919L302.773 259.742ZM330.795 248.459L327.972 241.45L333.778 239.109C320.827 210.305 296.934 185.407 263.584 172.132C238.425 162.114 209.104 158.211 179.865 154.323C143.46 149.482 107.173 144.643 78.1457 128.093C68.5478 122.62 60.7002 114.591 53.2402 106.951C46.2501 99.8009 39.6283 93.0142 32.6299 89.6198C24.2586 85.5562 16.2086 83.3016 8.67451 83.5364C1.3704 83.7665 -5.56675 86.3922 -11.9537 92.0587C-25.1182 103.724 -32.2566 121.078 -35.4259 140.071C-39.6311 165.251 -36.8886 193.202 -31.9154 214.854C-19.036 270.977 15.3144 320.472 60.0288 355.281C105.088 390.353 160.614 410.458 215.224 407.329C263.523 404.559 297.418 387.414 318.41 363.36C332.632 347.064 340.961 327.551 343.842 307.193C346.718 286.897 344.184 265.75 336.695 246.089L330.813 248.457L330.795 248.459ZM358.817 237.175L355.995 230.166L363.003 227.343L365.826 234.352L358.817 237.175ZM386.84 225.891L384.017 218.883L391.026 216.06L393.848 223.068L386.84 225.891ZM345.53 215.522C346.546 215.115 347.562 214.708 348.568 214.296C349.885 213.759 351.208 213.238 352.524 212.702L349.701 205.693C347.357 206.632 345.037 207.577 342.693 208.516L345.516 215.525L345.53 215.522ZM326.034 196.377C328.367 195.434 330.699 194.494 333.043 193.555L330.22 186.546C327.876 187.485 325.544 188.425 323.211 189.369L326.034 196.377ZM354.056 185.094C356.39 184.15 358.721 183.21 361.065 182.271L358.242 175.262C355.909 176.206 353.577 177.146 351.234 178.085L354.056 185.094ZM312.187 174.958L319.195 172.135L316.372 165.126L309.364 167.949L312.187 174.958ZM340.209 163.674C342.542 162.731 344.874 161.791 347.218 160.851L344.395 153.843C342.062 154.787 339.73 155.727 337.386 156.666L340.209 163.674ZM368.232 152.391C370.565 151.447 372.896 150.507 375.24 149.568L372.417 142.559C370.084 143.503 367.753 144.443 365.409 145.382L368.232 152.391ZM283.819 159.377C286.163 158.438 288.484 157.493 290.828 156.554L288.005 149.545C285.672 150.489 283.34 151.429 280.996 152.368L283.819 159.377ZM311.842 148.093L318.85 145.27L316.027 138.262L309.019 141.085L311.842 148.093ZM339.864 136.81L346.873 133.987L344.05 126.978L337.041 129.801L339.864 136.81ZM367.887 125.526L374.895 122.703L372.072 115.695L365.064 118.518L367.887 125.526ZM249.628 146.138L256.637 143.315L253.814 136.307L246.805 139.13L249.628 146.138ZM277.651 134.855L284.659 132.032L281.836 125.023L274.828 127.846L277.651 134.855ZM305.673 123.571L312.682 120.748L309.859 113.739L302.85 116.562L305.673 123.571ZM333.696 112.287L340.704 109.464L337.881 102.456L330.873 105.279L333.696 112.287ZM361.718 101.004L368.727 98.1808L365.904 91.1723L358.895 93.9952L361.718 101.004ZM223.479 129.655L220.656 122.646L227.664 119.823L230.487 126.832L223.479 129.655ZM251.501 118.371L248.678 111.363L255.687 108.54L258.51 115.548L251.501 118.371ZM279.523 107.088L276.701 100.079L283.709 97.2561L286.532 104.265L279.523 107.088ZM307.546 95.8041L304.723 88.7955L311.731 85.9726L314.554 92.9811L307.546 95.8041ZM14.921 360.639C16.1016 358.884 17.69 357.412 19.5397 356.373C21.4427 355.309 23.6339 354.717 25.9774 354.814C28.2618 354.897 30.6212 355.619 32.897 357.169C35.274 358.783 37.5861 361.302 39.6198 364.944C55.9639 394.165 72.0467 401.202 87.9017 408.15C92.3713 410.106 96.8305 412.065 101.334 414.495C110.358 419.363 116.337 425.35 119.737 431.755C123.05 437.998 123.916 444.59 122.729 450.909C121.561 457.112 118.416 463.007 113.672 467.967C107.789 474.133 99.4453 478.881 89.4474 481.009C65.9106 486.018 48.8116 468.342 36.685 444.908C25.0751 422.478 18.0331 394.733 14.4062 377.635C14.2382 376.833 14.036 376.051 13.8416 375.28C12.6486 370.507 11.4437 365.742 14.8954 360.658L14.921 360.639ZM23.2042 362.951C22.4062 363.4 21.7125 364.057 21.1704 364.852C19.6036 367.168 20.3943 370.29 21.1708 373.415C21.3938 374.31 21.62 375.197 21.8056 376.059C25.3534 392.77 32.2001 419.805 43.3857 441.43C54.0552 462.053 68.6592 477.707 87.9044 473.62C96.3736 471.822 103.372 467.869 108.238 462.763C111.978 458.842 114.453 454.264 115.345 449.49C116.223 444.826 115.574 439.937 113.101 435.274C110.358 430.117 105.398 425.201 97.7997 421.108C93.5618 418.822 89.2396 416.933 84.8968 415.032C67.8845 407.576 50.6271 400.019 33.0483 368.594C31.6361 366.06 30.1444 364.395 28.6801 363.399C27.6143 362.676 26.5965 362.344 25.6758 362.306C24.8085 362.275 23.9585 362.504 23.1999 362.931L23.2042 362.951ZM92.9512 14.8721C87.435 19.8504 82.0226 27.1162 77.7641 34.407C73.2049 42.2096 70.0466 49.8511 69.5752 54.5773C69.4684 55.6401 69.5212 56.4103 69.6802 56.9424C69.7483 57.1649 69.8526 57.2826 69.9683 57.3235C70.4731 57.5095 71.2615 57.4644 72.1769 57.2933C74.1845 56.9193 76.3719 55.9346 77.9227 55.0214C89.3053 48.313 97.6125 47.6869 106.366 47.0418C108.433 46.8907 110.526 46.7294 112.616 46.4938C122.511 45.3701 127.599 41.1621 129.244 35.9922C130.612 31.7096 129.781 26.6534 127.456 22.0364C125.052 17.2611 121.081 13.0354 116.261 10.6032C109.59 7.23686 101.157 7.465 92.9414 14.8849L92.9512 14.8721ZM71.2338 30.6203C75.8365 22.7462 81.7635 14.8199 87.9014 9.28253C98.8729 -0.622247 110.416 -0.796525 119.663 3.87037C125.928 7.03256 131.076 12.4924 134.173 18.6429C137.352 24.9401 138.41 32.0355 136.414 38.2879C133.909 46.1278 126.834 52.4412 113.459 53.9742C111.158 54.2399 109.017 54.3936 106.907 54.556C99.0592 55.1422 91.6257 55.6952 81.7546 61.5121C79.6017 62.7778 76.5038 64.1633 73.5262 64.7153C71.417 65.106 69.2996 65.0937 67.4102 64.4183C65.1317 63.5979 63.363 61.9775 62.4886 59.2014C62.0298 57.7333 61.8551 55.9527 62.0717 53.8196C62.6463 48.0588 66.1779 39.2841 71.2251 30.6324L71.2338 30.6203ZM151.07 408.446C116.909 399.895 84.1272 383.465 55.4823 361.178C43.4365 351.804 32.1238 341.39 21.7489 330.08C17.241 330.132 12.7258 330.15 8.16267 330.11C3.68431 330.062 -0.854871 329.946 -5.47085 329.728C-21.2433 328.973 -35.892 326.064 -48.4528 321.037C-61.9978 315.619 -73.1635 307.743 -80.788 297.468C-88.5038 287.072 -92.588 274.307 -91.8708 259.237C-91.4214 249.933 -89.1425 239.758 -84.7367 228.749C-80.8359 218.981 -75.438 208.847 -68.8344 198.667C-62.1198 188.328 -54.1438 177.892 -45.17 167.696L-44.9235 167.913C-44.9983 158.127 -44.3517 148.273 -42.7634 138.778C-39.3228 118.217 -31.4692 99.3118 -16.8582 86.3744C-9.03688 79.4435 -0.506127 76.2367 8.53559 75.9513C17.3531 75.6685 26.5632 78.2048 36.0122 82.8025C41.1129 85.2817 45.7909 89.0281 50.3954 93.3617C63.5153 86.8809 76.8529 81.7175 90.0753 78.2713C103.181 74.8565 116.197 73.1052 128.802 73.3989L129.032 73.4154C166.955 76.6073 172.15 98.8276 177.333 121.043C179.567 130.622 181.805 140.195 186.972 147.609C214.644 151.322 242.169 155.418 266.466 165.089C298.534 177.858 322.332 200.773 336.69 227.726C372.118 243.759 383.018 278.711 377.813 317.394C373.273 351.157 356.317 387.83 332.751 416.863C309.014 446.106 278.483 467.72 246.939 471.098C213.466 474.687 179.176 457.942 151.062 408.44L151.07 408.446ZM15.12 322.581C-10.805 292.165 -30.1105 255.927 -39.161 216.481C-41.7628 205.12 -43.7803 192.084 -44.5656 178.566C-51.2467 186.578 -57.2699 194.699 -62.4982 202.739C-68.8853 212.574 -74.0486 222.271 -77.7516 231.526C-81.8349 241.741 -83.9465 251.093 -84.3558 259.58C-84.9893 272.788 -81.4523 283.931 -74.7545 292.95C-67.976 302.081 -57.9242 309.137 -45.6613 314.045C-33.8818 318.76 -20.0623 321.498 -5.11388 322.21C-0.877621 322.412 3.6045 322.521 8.23445 322.564C10.4939 322.586 12.7896 322.593 15.1144 322.582L15.12 322.581ZM56.0743 98.9394C56.9461 99.8238 57.8243 100.724 58.7024 101.624C65.7834 108.873 73.2481 116.502 81.9724 121.477C108.849 136.807 142.994 141.729 177.489 146.337C173.808 139.035 171.902 130.889 170.004 122.733C165.452 103.22 160.887 83.7012 128.594 80.9081C116.709 80.6386 104.398 82.297 91.9637 85.5391C80.0122 88.6573 67.9683 93.2266 56.0833 98.9302L56.0743 98.9394Z" fill="#EABABA"/>
</svg>
